<svg id="SvgjsSvg1303" width="551" height="578" xmlns="http://www.w3.org/2000/svg" version="1.1" xmlns:xlink="http://www.w3.org/1999/xlink" xmlns:svgjs="http://svgjs.com/svgjs"><defs id="SvgjsDefs1304"><marker id="SvgjsMarker1363" markerWidth="16" markerHeight="12" refX="16" refY="6" viewBox="0 0 16 12" orient="auto" markerUnits="userSpaceOnUse" stroke-dasharray="0,0"><path id="SvgjsPath1364" d="M0,2 L14,6 L0,11 L0,2" fill="#323232" stroke="#323232" stroke-width="2"></path></marker><marker id="SvgjsMarker1367" markerWidth="16" markerHeight="12" refX="16" refY="6" viewBox="0 0 16 12" orient="auto" markerUnits="userSpaceOnUse" stroke-dasharray="0,0"><path id="SvgjsPath1368" d="M0,2 L14,6 L0,11 L0,2" fill="#323232" stroke="#323232" stroke-width="2"></path></marker><marker id="SvgjsMarker1371" markerWidth="16" markerHeight="12" refX="16" refY="6" viewBox="0 0 16 12" orient="auto" markerUnits="userSpaceOnUse" stroke-dasharray="0,0"><path id="SvgjsPath1372" d="M0,2 L14,6 L0,11 L0,2" fill="#323232" stroke="#323232" stroke-width="2"></path></marker><marker id="SvgjsMarker1375" markerWidth="16" markerHeight="12" refX="16" refY="6" viewBox="0 0 16 12" orient="auto" markerUnits="userSpaceOnUse" stroke-dasharray="0,0"><path id="SvgjsPath1376" d="M0,2 L14,6 L0,11 L0,2" fill="#323232" stroke="#323232" stroke-width="2"></path></marker><marker id="SvgjsMarker1379" markerWidth="16" markerHeight="12" refX="16" refY="6" viewBox="0 0 16 12" orient="auto" markerUnits="userSpaceOnUse" stroke-dasharray="0,0"><path id="SvgjsPath1380" d="M0,2 L14,6 L0,11 L0,2" fill="#323232" stroke="#323232" stroke-width="2"></path></marker><marker id="SvgjsMarker1383" markerWidth="16" markerHeight="12" refX="16" refY="6" viewBox="0 0 16 12" orient="auto" markerUnits="userSpaceOnUse" stroke-dasharray="0,0"><path id="SvgjsPath1384" d="M0,2 L14,6 L0,11 L0,2" fill="#323232" stroke="#323232" stroke-width="2"></path></marker><marker id="SvgjsMarker1387" markerWidth="16" markerHeight="12" refX="16" refY="6" viewBox="0 0 16 12" orient="auto" markerUnits="userSpaceOnUse" stroke-dasharray="0,0"><path id="SvgjsPath1388" d="M0,2 L14,6 L0,11 L0,2" fill="#323232" stroke="#323232" stroke-width="2"></path></marker><marker id="SvgjsMarker1391" markerWidth="16" markerHeight="12" refX="16" refY="6" viewBox="0 0 16 12" orient="auto" markerUnits="userSpaceOnUse" stroke-dasharray="0,0"><path id="SvgjsPath1392" d="M0,2 L14,6 L0,11 L0,2" fill="#323232" stroke="#323232" stroke-width="2"></path></marker><marker id="SvgjsMarker1395" markerWidth="16" markerHeight="12" refX="16" refY="6" viewBox="0 0 16 12" orient="auto" markerUnits="userSpaceOnUse" stroke-dasharray="0,0"><path id="SvgjsPath1396" d="M0,2 L14,6 L0,11 L0,2" fill="#323232" stroke="#323232" stroke-width="2"></path></marker><marker id="SvgjsMarker1399" markerWidth="16" markerHeight="12" refX="16" refY="6" viewBox="0 0 16 12" orient="auto" markerUnits="userSpaceOnUse" stroke-dasharray="0,0"><path id="SvgjsPath1400" d="M0,2 L14,6 L0,11 L0,2" fill="#323232" stroke="#323232" stroke-width="2"></path></marker></defs><g id="SvgjsG1305" transform="translate(131,25)"><path id="SvgjsPath1306" d="M 0 4Q 0 0 4 0L 197 0Q 201 0 201 4L 201 34Q 201 38 197 38L 4 38Q 0 38 0 34Z" stroke="rgba(50,50,50,1)" stroke-width="2" fill-opacity="1" fill="#ffffff"></path><g id="SvgjsG1307"><text id="SvgjsText1308" font-family="微软雅黑" text-anchor="middle" font-size="13px" width="181px" fill="#323232" font-weight="400" align="middle" anchor="middle" family="微软雅黑" size="13px" weight="400" font-style="" opacity="1" y="1.05" transform="rotate(0)"><tspan id="SvgjsTspan1309" dy="16" x="100.5"><tspan id="SvgjsTspan1310" style="text-decoration:;">交叉验证流程图</tspan></tspan><tspan id="SvgjsTspan1311" dy="16" x="100.5"><tspan id="SvgjsTspan1312" style="text-decoration:;">（cross_validate）</tspan></tspan></text></g></g><g id="SvgjsG1313" transform="translate(267,129)"><path id="SvgjsPath1314" d="M 0 4Q 0 0 4 0L 197 0Q 201 0 201 4L 201 34Q 201 38 197 38L 4 38Q 0 38 0 34Z" stroke="rgba(50,50,50,1)" stroke-width="2" fill-opacity="1" fill="#ffffff"></path><g id="SvgjsG1315"><text id="SvgjsText1316" font-family="微软雅黑" text-anchor="middle" font-size="13px" width="181px" fill="#323232" font-weight="400" align="middle" anchor="middle" family="微软雅黑" size="13px" weight="400" font-style="" opacity="1" y="9.05" transform="rotate(0)"><tspan id="SvgjsTspan1317" dy="16" x="100.5"><tspan id="SvgjsTspan1318" style="text-decoration:;">数据加载</tspan></tspan></text></g></g><g id="SvgjsG1319" transform="translate(233,207)"><path id="SvgjsPath1320" d="M 0 4Q 0 0 4 0L 113 0Q 117 0 117 4L 117 33Q 117 37 113 37L 4 37Q 0 37 0 33Z" stroke="rgba(50,50,50,1)" stroke-width="2" fill-opacity="1" fill="#ffffff"></path><g id="SvgjsG1321"><text id="SvgjsText1322" font-family="微软雅黑" text-anchor="middle" font-size="13px" width="97px" fill="#323232" font-weight="400" align="middle" anchor="middle" family="微软雅黑" size="13px" weight="400" font-style="" opacity="1" y="8.55" transform="rotate(0)"><tspan id="SvgjsTspan1323" dy="16" x="58.5"><tspan id="SvgjsTspan1324" style="text-decoration:;">训练特征</tspan></tspan></text></g></g><g id="SvgjsG1325" transform="translate(409,207)"><path id="SvgjsPath1326" d="M 0 4Q 0 0 4 0L 113 0Q 117 0 117 4L 117 33Q 117 37 113 37L 4 37Q 0 37 0 33Z" stroke="rgba(50,50,50,1)" stroke-width="2" fill-opacity="1" fill="#ffffff"></path><g id="SvgjsG1327"><text id="SvgjsText1328" font-family="微软雅黑" text-anchor="middle" font-size="13px" width="97px" fill="#323232" font-weight="400" align="middle" anchor="middle" family="微软雅黑" size="13px" weight="400" font-style="" opacity="1" y="8.55" transform="rotate(0)"><tspan id="SvgjsTspan1329" dy="16" x="58.5"><tspan id="SvgjsTspan1330" style="text-decoration:;">训练目标</tspan></tspan></text></g></g><g id="SvgjsG1331" transform="translate(173,358)"><path id="SvgjsPath1332" d="M 0 4Q 0 0 4 0L 113 0Q 117 0 117 4L 117 33Q 117 37 113 37L 4 37Q 0 37 0 33Z" stroke="rgba(50,50,50,1)" stroke-width="2" fill-opacity="1" fill="#ffffff"></path><g id="SvgjsG1333"><text id="SvgjsText1334" font-family="微软雅黑" text-anchor="middle" font-size="13px" width="97px" fill="#323232" font-weight="400" align="middle" anchor="middle" family="微软雅黑" size="13px" weight="400" font-style="" opacity="1" y="8.55" transform="rotate(0)"><tspan id="SvgjsTspan1335" dy="16" x="58.5"><tspan id="SvgjsTspan1336" style="text-decoration:;">多轮训练</tspan></tspan></text></g></g><g id="SvgjsG1337" transform="translate(131,515)"><path id="SvgjsPath1338" d="M 0 4Q 0 0 4 0L 197 0Q 201 0 201 4L 201 34Q 201 38 197 38L 4 38Q 0 38 0 34Z" stroke="rgba(50,50,50,1)" stroke-width="2" fill-opacity="1" fill="#ffffff"></path><g id="SvgjsG1339"><text id="SvgjsText1340" font-family="微软雅黑" text-anchor="middle" font-size="13px" width="181px" fill="#323232" font-weight="400" align="middle" anchor="middle" family="微软雅黑" size="13px" weight="400" font-style="" opacity="1" y="9.05" transform="rotate(0)"><tspan id="SvgjsTspan1341" dy="16" x="100.5"><tspan id="SvgjsTspan1342" style="text-decoration:;">最终验证</tspan></tspan></text></g></g><g id="SvgjsG1343" transform="translate(25,129.5)"><path id="SvgjsPath1344" d="M 0 4Q 0 0 4 0L 113 0Q 117 0 117 4L 117 33Q 117 37 113 37L 4 37Q 0 37 0 33Z" stroke="rgba(50,50,50,1)" stroke-width="2" fill-opacity="1" fill="#ffffff"></path><g id="SvgjsG1345"><text id="SvgjsText1346" font-family="微软雅黑" text-anchor="middle" font-size="13px" width="97px" fill="#323232" font-weight="400" align="middle" anchor="middle" family="微软雅黑" size="13px" weight="400" font-style="" opacity="1" y="8.55" transform="rotate(0)"><tspan id="SvgjsTspan1347" dy="16" x="58.5"><tspan id="SvgjsTspan1348" style="text-decoration:;">交叉参数</tspan></tspan></text></g></g><g id="SvgjsG1349" transform="translate(131,289)"><path id="SvgjsPath1350" d="M 0 4Q 0 0 4 0L 197 0Q 201 0 201 4L 201 32Q 201 36 197 36L 4 36Q 0 36 0 32Z" stroke="rgba(50,50,50,1)" stroke-width="2" fill-opacity="1" fill="#ff3333"></path><g id="SvgjsG1351"><text id="SvgjsText1352" font-family="微软雅黑" text-anchor="middle" font-size="13px" width="181px" fill="#323232" font-weight="400" align="middle" anchor="middle" family="微软雅黑" size="13px" weight="400" font-style="" opacity="1" y="8.05" transform="rotate(0)"><tspan id="SvgjsTspan1353" dy="16" x="100.5"><tspan id="SvgjsTspan1354" style="text-decoration:;">交叉验证</tspan></tspan></text></g></g><g id="SvgjsG1355" transform="translate(173,432)"><path id="SvgjsPath1356" d="M 0 4Q 0 0 4 0L 113 0Q 117 0 117 4L 117 33Q 117 37 113 37L 4 37Q 0 37 0 33Z" stroke="rgba(50,50,50,1)" stroke-width="2" fill-opacity="1" fill="#ffffff"></path><g id="SvgjsG1357"><text id="SvgjsText1358" font-family="微软雅黑" text-anchor="middle" font-size="13px" width="97px" fill="#323232" font-weight="400" align="middle" anchor="middle" family="微软雅黑" size="13px" weight="400" font-style="" opacity="1" y="8.55" transform="rotate(0)"><tspan id="SvgjsTspan1359" dy="16" x="58.5"><tspan id="SvgjsTspan1360" style="text-decoration:;">最佳参数</tspan></tspan></text></g></g><g id="SvgjsG1361"><path id="SvgjsPath1362" d="M231.5 63L231.5 96L367.5 96L367.5 129" stroke="#323232" stroke-width="2" fill="none" marker-end="url(#SvgjsMarker1363)"></path></g><g id="SvgjsG1365"><path id="SvgjsPath1366" d="M367.5 167L367.5 187L291.5 187L291.5 207" stroke="#323232" stroke-width="2" fill="none" marker-end="url(#SvgjsMarker1367)"></path></g><g id="SvgjsG1369"><path id="SvgjsPath1370" d="M367.5 167L367.5 187L467.5 187L467.5 207" stroke="#323232" stroke-width="2" fill="none" marker-end="url(#SvgjsMarker1371)"></path></g><g id="SvgjsG1373"><path id="SvgjsPath1374" d="M231.5 63L231.5 96.25L83.5 96.25L83.5 129.5" stroke="#323232" stroke-width="2" fill="none" marker-end="url(#SvgjsMarker1375)"></path></g><g id="SvgjsG1377"><path id="SvgjsPath1378" d="M231.5 325L231.5 341.5L231.5 341.5L231.5 358" stroke="#323232" stroke-width="2" fill="none" marker-end="url(#SvgjsMarker1379)"></path></g><g id="SvgjsG1381"><path id="SvgjsPath1382" d="M83.5 166.5L83.5 307L131 307" stroke="#323232" stroke-width="2" fill="none" marker-end="url(#SvgjsMarker1383)"></path></g><g id="SvgjsG1385"><path id="SvgjsPath1386" d="M291.5 244L291.5 266.5L231.5 266.5L231.5 289" stroke="#323232" stroke-width="2" fill="none" marker-end="url(#SvgjsMarker1387)"></path></g><g id="SvgjsG1389"><path id="SvgjsPath1390" d="M467.5 244L467.5 307L332 307" stroke="#323232" stroke-width="2" fill="none" marker-end="url(#SvgjsMarker1391)"></path></g><g id="SvgjsG1393"><path id="SvgjsPath1394" d="M231.5 395L231.5 413.5L231.5 413.5L231.5 432" stroke="#323232" stroke-width="2" fill="none" marker-end="url(#SvgjsMarker1395)"></path></g><g id="SvgjsG1397"><path id="SvgjsPath1398" d="M231.5 469L231.5 492L231.5 492L231.5 515" stroke="#323232" stroke-width="2" fill="none" marker-end="url(#SvgjsMarker1399)"></path></g></svg>
